<svg version="1" xmlns="http://www.w3.org/2000/svg" width="682.667" height="682.667" viewBox="0 0 512.000000 512.000000"><path d="M326.8.8c-2.5 1-5.4 5.2-8.8 12.5-1.6 3.6-3 6.8-3 7 0 1.9-8.3 13.9-12.3 17.8-4.7 4.6-13.5 9.6-18 10.2-1.3.2-4.2 3-7.5 7.3-5.5 7.3-15.7 26.8-16.6 31.9-.7 4-1.3 8.2-2.6 19-2.1 16.8-1.9 16.5-16.3 31.1-9 9.1-14.6 13.9-18.5 16-3.1 1.6-6.7 3.8-8 4.9-1.3 1.1-8.3 6.1-15.5 11.2-19.2 13.4-23.8 16.7-25.1 17.8-.6.5-3.4 2.8-6.1 5-4.9 3.9-16.7 15.4-21.5 21.1-6.7 8-17.6 28.7-19.5 37.3-.2.9-1.5 5.6-2.9 10.6-2.9 10.6-3.7 15.4-4.1 25.5-.2 4.1-.4 7.9-.5 8.5-.1.5-.2 1.2-.1 1.5.1.3.4 3.9.6 8 .5 9.6 1.8 21.5 4.1 36 .2 1.4.6 4.3.8 6.5.4 3.8.9 7.3 2.1 15.5 1 7.1 1.9 20.7 1.8 28.5 0 6.4-.6 9.7-3.2 16.5-9.9 26.3-9.5 24.7-9.5 36.5-.1 6.5.5 13 1.3 16 1.5 5.5 6.8 17.3 8.5 19.1.6.6 2.9 3.4 5.1 6.2 2.2 2.8 4.4 5.1 4.9 5.2.6 0 1.9.8 3 1.9 5.1 4.6 24.2 12.7 33.9 14.5 1.5.2 3.5.7 4.5 1 .9.2 4 .8 6.7 1.1 2.8.4 6.6.9 8.5 1.2 5.2.9 40.6.9 47.5 0 9.7-1.2 20.6-3.1 27-4.9 2.2-.5 4.7-1.2 5.5-1.3 8.2-1.9 21.8-8.2 23.7-11.2 1.4-2.1 1.4-2.5-.1-4.2-3.7-4-24-5-36.1-1.8-8.4 2.2-17.8 3.1-34 3.1-25.7.1-35.9-1.6-56.4-9.5-7.1-2.7-9.5-4.2-15.1-9.8-7.7-7.6-9.9-11.9-10.7-21.2-.7-8 1.4-13.5 6-15.4 3.2-1.3 4.1-1.3 13.6.5 3.5.6 6.9.9 7.6.6.7-.2 1.6-.2 2 .2.7.7 1.2.8 17.7 1.7 24.5 1.4 101.4.7 117.7-1.1 2.5-.2 6.6-.7 9.1-.9 2.5-.3 5.6-.7 7-1 1.4-.2 3.6-.6 5-.9 7.1-1.2 10.6-1.9 11.5-2.5.6-.3 1.8-.7 2.8-.8 3.2-.5 11.7-5.3 15-8.4 2.3-2.3 3.1-3.8 2.8-5.7-.5-4.4-4-5.9-16.1-6.8-7.4-.6-12-2.2-12.1-4.2-.3-3.7-1.6-10.8-4.1-21.7-1.1-5-2.2-10.1-2.4-11.5-.3-1.4-1.1-5.7-1.9-9.5-5.7-27.1-7.3-45.8-4.9-56.2 2.6-11.2 5-17.5 11.9-31.3 8.3-16.6 11.7-22.6 17.6-30.4 3.2-4.3 6.2-9 6.5-10.5.4-1.4 1.7-4.4 3-6.7 3-5.1 5.2-12.2 6.1-19.4 1-7.4.9-37.5-.1-42.5-.4-2.2-.9-5.3-1.2-6.9-.3-1.6-.7-3.2-.9-3.6-.7-1.1-1.8-12.5-1.7-17.5.3-11.4 2.3-14.7 12.3-21.5 13-8.6 20.3-19.5 20.4-30.2 0-6.8-2.1-9.5-10.7-13.9-4.2-2.1-7.2-4.7-11.3-9.8-3-3.9-7.6-8.4-10.1-10.2-5.3-3.6-13.6-6.9-17.6-6.9-4.7 0-5.6-3.4-6.3-23-.4-13.9-.8-16.3-2.8-19.4C334.2.4 330-.5 326.8.8z"/></svg>