<svg   xmlns:dc="http://purl.org/dc/elements/1.1/"   xmlns:cc="http://creativecommons.org/ns#"   xmlns:rdf="http://www.w3.org/1999/02/22-rdf-syntax-ns#"   xmlns:svg="http://www.w3.org/2000/svg"   xmlns="http://www.w3.org/2000/svg"   xmlns:sodipodi="http://sodipodi.sourceforge.net/DTD/sodipodi-0.dtd"   xmlns:inkscape="http://www.inkscape.org/namespaces/inkscape"   width="40"   height="40"   viewBox="0 0 10.583333 10.583333"   version="1.1"   id="svg3850"   inkscape:version="0.92.2 (5c3e80d, 2017-08-06)"   sodipodi:docname="keybase.svg">  <defs     id="defs3844">    <clipPath       clipPathUnits="userSpaceOnUse"       id="clipPath3752">      <path         d="M 0,600 H 600 V 0 H 0 Z"         id="path3750"         inkscape:connector-curvature="0" />    </clipPath>  </defs>  <sodipodi:namedview     id="base"     pagecolor="#ffffff"     bordercolor="#666666"     borderopacity="1.0"     inkscape:pageopacity="0.0"     inkscape:pageshadow="2"     inkscape:zoom="5.6"     inkscape:cx="42.472402"     inkscape:cy="6.0201547"     inkscape:document-units="mm"     inkscape:current-layer="layer1"     showgrid="false"     fit-margin-top="0"     fit-margin-left="0"     fit-margin-right="0"     fit-margin-bottom="0"     units="px"     inkscape:window-width="1920"     inkscape:window-height="1018"     inkscape:window-x="-8"     inkscape:window-y="-8"     inkscape:window-maximized="1" />  <metadata     id="metadata3847">    <rdf:RDF>      <cc:Work         rdf:about="">        <dc:format>image/svg+xml</dc:format>        <dc:type           rdf:resource="http://purl.org/dc/dcmitype/StillImage" />        <dc:title></dc:title>      </cc:Work>    </rdf:RDF>  </metadata>  <g     inkscape:label="Layer 1"     inkscape:groupmode="layer"     id="layer1"     transform="translate(-18.092464,-126.73724)">    <g       transform="matrix(0.029348,0,0,-0.029348,14.417843,140.81319)"       id="g3746">      <g         id="g3748"         clip-path="url(#clipPath3752)">        <g           id="g3754"           transform="translate(309.6481,443.0691)">          <path             d="m 0,0 c -98.307,0 -178,-79.693 -178,-178 0,-33.94 9.502,-65.658 25.986,-92.647 l 19.44,20.641 c -1.307,7.529 -1.994,15.271 -1.994,23.175 0,74.32 60.248,134.568 134.568,134.568 74.32,0 134.568,-65.784 134.568,-134.568 0,-26.549 -5.149,-52.647 -17.217,-74.692 h 10.801 C 159.013,-269.513 178,-225.976 178,-178 178,-79.693 98.307,0 0,0"             style="fill:#33a0ff;fill-opacity:1;fill-rule:nonzero;stroke:none"             id="path3756"             inkscape:connector-curvature="0" />        </g>        <g           id="g3758"           transform="translate(309.6481,350.8062)">          <path             d="m 0,0 c -74.32,0 -134.568,-60.248 -134.568,-134.568 0,-27.636 8.335,-53.322 22.622,-74.692 h 229.297 c 12.068,22.045 17.217,48.143 17.217,74.692 C 134.568,-65.785 74.32,0 0,0"             style="fill:#ffffff;fill-opacity:1;fill-rule:nonzero;stroke:none"             id="path3760"             inkscape:connector-curvature="0" />        </g>        <g           id="g3762"           transform="translate(309.648,359.4888)">          <path             d="m 0,0 c -78.989,0 -143.251,-64.262 -143.251,-143.251 0,-27.349 7.708,-52.93 21.06,-74.692 h 20.924 c -15.462,20.909 -24.618,46.75 -24.618,74.692 0,69.413 56.472,125.885 125.885,125.885 32.98,0 64.562,-13.801 88.929,-38.86 23.486,-24.154 36.956,-55.874 36.956,-87.025 0,-21.165 -3.474,-49.887 -18.547,-74.692 h 19.811 c 10.59,21.139 16.102,46.468 16.102,74.692 0,35.633 -15.261,71.764 -41.871,99.131 C 73.714,-15.669 37.711,0 0,0"             style="fill:#282828;fill-opacity:1;fill-rule:nonzero;stroke:none"             id="path3764"             inkscape:connector-curvature="0" />        </g>        <g           id="g3766"           transform="translate(282.4788,177.1741)">          <path             d="m 0,0 c 0,-7.135 -5.784,-12.918 -12.918,-12.918 -7.135,0 -12.919,5.783 -12.919,12.918 0,7.135 5.784,12.918 12.919,12.918 C -5.784,12.918 0,7.135 0,0"             style="fill:#282827;fill-opacity:1;fill-rule:nonzero;stroke:none"             id="path3768"             inkscape:connector-curvature="0" />        </g>        <g           id="g3770"           transform="translate(362.6539,177.1741)">          <path             d="m 0,0 c 0,-7.135 -5.784,-12.918 -12.918,-12.918 -7.135,0 -12.919,5.783 -12.919,12.918 0,7.135 5.784,12.918 12.919,12.918 C -5.784,12.918 0,7.135 0,0"             style="fill:#282827;fill-opacity:1;fill-rule:nonzero;stroke:none"             id="path3772"             inkscape:connector-curvature="0" />        </g>        <g           id="g3774"           transform="translate(162.8241,182.2988)">          <path             d="M 0,0 71.708,76.051 54.447,21.94 c 55.984,40.741 114.755,34.298 156.138,22.147 43.924,-12.898 74.675,25.895 44.572,67.279 -14.305,19.667 -33.927,35.996 -56.216,45.898 C 140.484,183.234 81.711,168.093 42.064,128.042 0.065,85.617 0,38.558 0,0"             style="fill:#ff6f21;fill-opacity:1;fill-rule:nonzero;stroke:none"             id="path3776"             inkscape:connector-curvature="0" />        </g>        <g           id="g3778"           transform="translate(302.9106,343.7231)">          <path             d="m 0,0 c -8.383,0 -16.707,-0.835 -24.888,-2.518 -24.944,-5.131 -48.1,-17.917 -66.964,-36.972 -32.121,-32.449 -38.155,-67.268 -39.289,-99.79 l 82.637,87.643 -21.637,-67.83 c 41.87,22.549 89.888,26.082 143.086,10.461 17.117,-5.025 32.664,-1.171 40.576,10.059 8.125,11.533 6.08,27.9 -5.472,43.781 -13.617,18.721 -32.34,34.017 -52.72,43.071 C 37.267,-4.071 18.496,0 0,0 m -148.769,-183.29 v 21.866 c 0,39.706 0,89.122 44.575,134.151 21.283,21.498 47.496,35.941 75.807,41.764 29.801,6.13 61.188,2.425 90.767,-10.716 23.124,-10.273 44.33,-27.578 59.712,-48.726 15.891,-21.845 18.046,-46.368 5.625,-63.998 -12.141,-17.234 -35.56,-23.795 -59.665,-16.719 -56.709,16.651 -106.7,9.642 -148.582,-20.838 l -21.44,-15.601 13.716,42.997 z"             style="fill:#282827;fill-opacity:1;fill-rule:nonzero;stroke:none"             id="path3780"             inkscape:connector-curvature="0" />        </g>        <g           id="g3782"           transform="translate(229.2376,393.203)">          <path             d="m 0,0 c -8.199,0.503 -14.484,7.588 -14.005,15.794 l 1.177,19.013 c 0.488,7.865 7.043,14.024 14.924,14.024 0.294,0 0.59,-0.008 0.888,-0.026 l 19.001,-1.177 c 3.978,-0.241 7.63,-2.024 10.275,-5.018 2.648,-2.992 3.97,-6.846 3.714,-10.842 L 34.808,12.823 C 34.744,11.794 34.531,10.975 34.406,10.538 L 33.788,7.524 21.805,-1.349 Z"             style="fill:#3dcc8e;fill-opacity:1;fill-rule:nonzero;stroke:none"             id="path3784"             inkscape:connector-curvature="0" />        </g>        <g           id="g3786"           transform="translate(231.3336,450.7176)">          <path             d="m 0,0 c -12.457,0 -22.819,-9.738 -23.59,-22.17 l -1.176,-18.982 -0.002,-0.032 -0.002,-0.033 c -0.755,-12.971 9.181,-24.171 22.148,-24.965 l 18.635,-1.153 6.318,-0.39 5.087,3.766 6.768,5.01 5.345,3.957 1.229,5.999 c 0.25,0.937 0.521,2.205 0.618,3.754 l 1.168,18.98 c 0.402,6.278 -1.688,12.372 -5.887,17.116 -4.171,4.723 -9.948,7.542 -16.255,7.925 L 1.451,-0.044 1.424,-0.043 1.396,-0.041 C 0.933,-0.014 0.463,0 0,0 m 14.191,-39.695 0.699,11.291 -11.294,0.7 -0.701,-11.295 11.296,-0.696 M 0,-17.366 c 0.125,0 0.251,-0.004 0.377,-0.011 l 18.976,-1.175 c 1.662,-0.101 3.195,-0.847 4.302,-2.1 1.111,-1.256 1.665,-2.869 1.558,-4.541 l -1.167,-18.965 c -0.019,-0.294 -0.135,-0.552 -0.193,-0.834 l -6.767,-5.01 -18.646,1.153 c -3.441,0.211 -6.073,3.183 -5.873,6.623 l 1.176,18.982 c 0.205,3.313 2.954,5.878 6.257,5.878"             style="fill:#282828;fill-opacity:1;fill-rule:nonzero;stroke:none"             id="path3788"             inkscape:connector-curvature="0" />        </g>        <g           id="g3790"           transform="translate(344.001,357.9734)">          <path             d="m 0,0 c -8.501,-22.153 -33.156,-34.521 -55.996,-28.09 -25.734,7.246 -39.324,27.927 -36.061,54.161 3.245,26.088 20.875,48.96 41.196,77.155 -16.692,-35.53 -2.512,-38.859 1.974,-38.681 4.432,0.175 10.902,-0.58 20.111,-3.636 C -3.686,52.582 9.578,24.96 0,0"             style="fill:#ff6f21;fill-opacity:1;fill-rule:nonzero;stroke:none"             id="path3792"             inkscape:connector-curvature="0" />        </g>        <g           id="g3794"           transform="translate(278.2453,424.9296)">          <path             d="m 0,0 c -9.334,-14.428 -15.919,-27.765 -17.685,-41.958 -2.734,-21.985 8.406,-38.708 29.798,-44.731 18.609,-5.239 38.61,4.795 45.536,22.844 3.755,9.785 3.364,20.372 -1.102,29.809 -4.469,9.445 -12.39,16.458 -22.302,19.747 -8.622,2.862 -14.023,3.322 -17.032,3.201 C 10.926,-11.347 5.142,-8.413 1.729,-3.266 1.052,-2.246 0.476,-1.158 0,0 m 22.077,-105.429 c -4.876,0 -9.803,0.654 -14.67,2.024 -14.629,4.119 -26.313,12.251 -33.787,23.518 -7.449,11.229 -10.402,25.086 -8.537,40.073 3.309,26.607 19.783,49.38 38.857,75.749 1.291,1.783 2.595,3.586 3.91,5.412 L 22.753,32.578 C 12.894,11.591 16.184,6.346 16.222,6.303 16.241,6.304 16.432,6.265 16.542,6.265 23,6.529 30.804,5.151 39.715,2.194 c 14.459,-4.799 26.011,-15.028 32.529,-28.802 6.515,-13.767 7.089,-29.201 1.619,-43.459 -8.297,-21.62 -29.455,-35.362 -51.786,-35.362"             style="fill:#282827;fill-opacity:1;fill-rule:nonzero;stroke:none"             id="path3796"             inkscape:connector-curvature="0" />        </g>        <g           id="g3798"           transform="translate(319.8644,272.5052)">          <path             d="m 0,0 c -3.608,0 -6.985,1.603 -9.265,4.397 l -6.424,7.869 c -2.014,2.465 -2.947,5.569 -2.626,8.737 0.258,2.55 1.303,4.897 2.988,6.765 -1.082,0.676 -2.059,1.533 -2.89,2.549 l -1.468,1.798 c -4.16,5.092 -3.401,12.618 1.69,16.778 l 0.254,0.208 -8.865,10.881 c -4.486,5.496 -3.665,13.629 1.835,18.123 2.309,1.88 5.2,2.909 8.155,2.909 3.879,0 7.515,-1.723 9.977,-4.728 L 33.508,26.871 C 37.987,21.384 37.165,13.251 31.665,8.757 30.143,7.514 28.329,6.624 26.419,6.182 25.463,5.962 24.488,5.851 23.513,5.851 c -3.093,0 -6.031,1.094 -8.342,3.058 L 7.559,2.695 C 5.43,0.957 2.746,0 0,0"             style="fill:#3dcc8e;fill-opacity:1;fill-rule:nonzero;stroke:none"             id="path3800"             inkscape:connector-curvature="0" />        </g>        <g           id="g3802"           transform="translate(303.2478,362.2024)">          <path             d="m 0,0 c -4.946,0 -9.785,-1.722 -13.625,-4.85 -9.229,-7.539 -10.604,-21.152 -3.086,-30.362 l 4.494,-5.516 c -3.558,-7.05 -2.886,-15.844 2.422,-22.344 l 0.369,-0.453 c -2.083,-6.44 -0.962,-13.777 3.627,-19.398 l 6.426,-7.87 c 3.934,-4.82 9.762,-7.587 15.989,-7.587 4.741,0 9.375,1.652 13.049,4.651 l 3.064,2.5 c 2.339,-0.852 4.837,-1.3 7.4,-1.3 1.631,0 3.264,0.186 4.853,0.553 3.205,0.739 6.246,2.231 8.794,4.312 9.206,7.521 10.581,21.134 3.063,30.344 L 16.737,-7.962 16.716,-7.936 16.695,-7.91 C 12.578,-2.883 6.493,0 0,0 m 0,-17.366 c 1.219,0 2.426,-0.529 3.259,-1.547 l 40.127,-49.388 c 1.469,-1.799 1.199,-4.447 -0.598,-5.915 -0.518,-0.423 -1.103,-0.699 -1.711,-0.839 -0.312,-0.073 -0.631,-0.108 -0.948,-0.108 -1.219,0 -2.427,0.526 -3.26,1.544 l -3.996,4.926 -14.189,-11.583 c -0.608,-0.496 -1.34,-0.738 -2.068,-0.738 -0.949,0 -1.89,0.411 -2.537,1.204 l -6.426,7.87 c -1.13,1.384 -0.924,3.422 0.46,4.552 l 14.259,11.64 -5.826,7.182 -7.054,-5.762 c -0.577,-0.471 -1.271,-0.7 -1.962,-0.7 -0.899,0 -1.792,0.389 -2.405,1.14 l -1.469,1.799 c -1.132,1.387 -0.927,3.429 0.46,4.561 l 6.969,5.693 -14.343,17.604 c -1.468,1.8 -1.199,4.447 0.598,5.915 0.785,0.64 1.726,0.95 2.66,0.95"             style="fill:#282828;fill-opacity:1;fill-rule:nonzero;stroke:none"             id="path3804"             inkscape:connector-curvature="0" />        </g>      </g>    </g>  </g></svg>
